<svg xmlns="http://www.w3.org/2000/svg" xmlns:xlink="http://www.w3.org/1999/xlink" width="400" zoomAndPan="magnify" viewBox="0 0 300 149.999998" height="200" preserveAspectRatio="xMidYMid meet" version="1.0"><defs><clipPath id="9a6fa51e8d"><path d="M 22 42.160156 L 117.078125 42.160156 L 117.078125 108 L 22 108 Z M 22 42.160156 " clip-rule="nonzero"/></clipPath><clipPath id="9f5ecc1863"><path d="M 214.773438 34.171875 L 274 34.171875 L 274 115.921875 L 214.773438 115.921875 Z M 214.773438 34.171875 " clip-rule="nonzero"/></clipPath><clipPath id="adb5aa4b40"><path d="M 145.371094 54.171875 L 187.371094 54.171875 L 187.371094 96 L 145.371094 96 Z M 145.371094 54.171875 " clip-rule="nonzero"/></clipPath></defs><g clip-path="url(#9a6fa51e8d)"><path fill="#004aad" d="M 101.386719 54.503906 L 95.113281 54.503906 C 89.140625 46.953125 79.929688 42.117188 69.59375 42.117188 C 59.261719 42.117188 50.050781 46.953125 44.078125 54.503906 L 37.804688 54.503906 C 29.085938 54.503906 22.015625 61.570312 22.015625 70.289062 L 22.015625 80.703125 C 22.015625 89.421875 29.085938 96.492188 37.804688 96.492188 L 44.984375 96.492188 C 50.960938 103.410156 59.773438 107.78125 69.597656 107.78125 C 79.421875 107.78125 88.230469 103.410156 94.207031 96.492188 L 101.386719 96.492188 C 110.109375 96.492188 117.175781 89.421875 117.175781 80.703125 L 117.175781 70.289062 C 117.171875 61.570312 110.105469 54.503906 101.386719 54.503906 Z M 50.4375 85.527344 L 45.066406 85.527344 L 42.710938 72.59375 L 40.40625 85.527344 L 35.089844 85.527344 L 30.046875 64.535156 L 36.074219 64.535156 L 37.125 71.875 L 37.828125 76.8125 L 40.132812 64.535156 L 45.449219 64.535156 L 47.695312 76.8125 L 49.507812 64.480469 L 55.425781 64.480469 Z M 63.375 85.417969 L 57.945312 85.417969 L 57.945312 70.234375 L 63.375 70.234375 Z M 60.714844 68.699219 C 58.972656 68.699219 57.5625 67.484375 57.5625 65.988281 C 57.5625 64.488281 58.972656 63.273438 60.714844 63.273438 C 62.457031 63.273438 63.867188 64.488281 63.867188 65.988281 C 63.867188 67.484375 62.457031 68.699219 60.714844 68.699219 Z M 113.75 81.035156 C 113.75 91.886719 101.765625 93.359375 101.765625 93.359375 L 96.601562 93.363281 L 64.972656 93.390625 C 72.097656 87.140625 71.542969 80.59375 71.542969 80.59375 L 71.542969 70.949219 C 71.542969 58.230469 84.367188 57.792969 84.367188 57.792969 C 84.367188 57.792969 88.839844 57.792969 97.40625 57.792969 L 101.25 57.792969 C 112.324219 57.792969 113.75 70.179688 113.75 70.179688 C 113.75 70.179688 113.75 70.179688 113.75 81.035156 Z M 113.75 81.035156 " fill-opacity="1" fill-rule="nonzero"/></g><path fill="#004aad" d="M 100.261719 70.234375 L 100.261719 85.417969 L 105.691406 85.417969 L 105.691406 70.234375 Z M 100.261719 70.234375 " fill-opacity="1" fill-rule="nonzero"/><path fill="#004aad" d="M 103.035156 63.273438 C 101.988281 63.273438 101.0625 63.714844 100.488281 64.390625 C 100.109375 64.839844 99.882812 65.390625 99.882812 65.988281 C 99.882812 67.027344 100.5625 67.929688 101.558594 68.382812 C 102 68.585938 102.5 68.699219 103.035156 68.699219 C 104.773438 68.699219 106.1875 67.484375 106.1875 65.988281 C 106.1875 64.488281 104.773438 63.273438 103.035156 63.273438 Z M 103.035156 63.273438 " fill-opacity="1" fill-rule="nonzero"/><path fill="#004aad" d="M 78.886719 85.363281 L 84.695312 85.363281 L 84.695312 79.003906 L 95.714844 79.003906 L 95.714844 74.128906 L 84.695312 74.128906 L 84.695312 69.46875 L 96.917969 69.46875 L 96.917969 64.535156 L 78.886719 64.535156 Z M 78.886719 85.363281 " fill-opacity="1" fill-rule="nonzero"/><g clip-path="url(#9f5ecc1863)"><path fill="#004aad" d="M 272.523438 59.121094 L 258.667969 59.121094 C 257.757812 59.121094 256.960938 59.738281 256.730469 60.621094 L 253.515625 73.023438 C 253.289062 73.90625 252.492188 74.519531 251.582031 74.519531 L 236.847656 74.519531 C 235.933594 74.519531 235.140625 73.90625 234.910156 73.023438 L 231.695312 60.621094 C 231.46875 59.738281 230.671875 59.121094 229.761719 59.121094 L 215.902344 59.121094 C 215.277344 59.121094 214.773438 59.628906 214.773438 60.253906 L 214.773438 69.113281 C 214.773438 73.605469 215.863281 78.03125 217.953125 82.011719 L 223.847656 93.242188 C 224.042969 93.617188 224.429688 93.847656 224.847656 93.847656 L 242.246094 93.847656 L 242.246094 96.867188 L 226.03125 96.867188 C 225.703125 96.867188 225.480469 97.203125 225.601562 97.507812 L 226.304688 99.226562 C 226.375 99.402344 226.546875 99.515625 226.734375 99.515625 L 242.246094 99.515625 L 242.246094 102.535156 L 228.347656 102.535156 C 228.019531 102.535156 227.792969 102.867188 227.917969 103.171875 L 228.621094 104.894531 C 228.691406 105.066406 228.859375 105.179688 229.046875 105.179688 L 242.246094 105.179688 L 242.246094 108.203125 L 230.660156 108.203125 C 230.332031 108.203125 230.109375 108.535156 230.230469 108.839844 L 230.933594 110.558594 C 231.003906 110.734375 231.175781 110.847656 231.363281 110.847656 L 242.246094 110.847656 L 242.246094 113.796875 C 242.246094 114.886719 243.125 115.769531 244.214844 115.769531 C 245.300781 115.769531 246.183594 114.886719 246.183594 113.796875 L 246.183594 110.847656 L 257.078125 110.847656 C 257.269531 110.847656 257.4375 110.734375 257.507812 110.558594 L 258.210938 108.839844 C 258.335938 108.535156 258.113281 108.203125 257.78125 108.203125 L 246.183594 108.203125 L 246.183594 105.179688 L 259.394531 105.179688 C 259.582031 105.179688 259.75 105.066406 259.824219 104.894531 L 260.523438 103.171875 C 260.648438 102.867188 260.425781 102.535156 260.097656 102.535156 L 246.183594 102.535156 L 246.183594 99.515625 L 261.707031 99.515625 C 261.894531 99.515625 262.066406 99.402344 262.136719 99.226562 L 262.839844 97.507812 C 262.964844 97.203125 262.742188 96.867188 262.410156 96.867188 L 246.183594 96.867188 L 246.183594 93.847656 L 263.578125 93.847656 C 264 93.847656 264.386719 93.617188 264.578125 93.242188 L 270.476562 82.011719 C 272.5625 78.03125 273.65625 73.605469 273.65625 69.113281 L 273.65625 60.253906 C 273.65625 59.628906 273.148438 59.121094 272.523438 59.121094 Z M 260.328125 43.351562 L 268.824219 54.265625 L 273.65625 54.265625 L 273.65625 34.371094 L 268.199219 34.371094 L 268.199219 44.886719 L 260.015625 34.371094 L 254.871094 34.371094 L 254.871094 54.265625 L 260.328125 54.265625 Z M 241.769531 40.765625 L 247.027344 54.265625 L 252.9375 54.265625 L 244.46875 34.230469 L 239.15625 34.230469 L 230.6875 54.265625 L 236.484375 54.265625 Z M 229.917969 54.265625 L 214.773438 54.265625 L 214.773438 34.371094 L 220.285156 34.371094 L 220.285156 49.433594 L 229.917969 49.433594 L 229.917969 54.265625 " fill-opacity="1" fill-rule="nonzero"/></g><g clip-path="url(#adb5aa4b40)"><path fill="#004aad" d="M 166.195312 54.171875 C 154.710938 54.171875 145.371094 63.515625 145.371094 74.996094 C 145.371094 86.480469 154.710938 95.820312 166.195312 95.820312 C 177.675781 95.820312 187.019531 86.480469 187.019531 74.996094 C 187.019531 63.515625 177.675781 54.171875 166.195312 54.171875 Z M 166.195312 93.042969 C 156.242188 93.042969 148.148438 84.949219 148.148438 74.996094 C 148.148438 65.046875 156.242188 56.949219 166.195312 56.949219 C 176.144531 56.949219 184.242188 65.046875 184.242188 74.996094 C 184.242188 84.949219 176.144531 93.042969 166.195312 93.042969 Z M 166.195312 93.042969 " fill-opacity="1" fill-rule="nonzero"/></g><path fill="#004aad" d="M 173.457031 73.609375 L 167.582031 73.609375 L 167.582031 67.734375 C 167.582031 66.96875 166.960938 66.34375 166.195312 66.34375 C 165.425781 66.34375 164.804688 66.96875 164.804688 67.734375 L 164.804688 73.609375 L 158.929688 73.609375 C 158.164062 73.609375 157.542969 74.230469 157.542969 74.996094 C 157.542969 75.761719 158.164062 76.386719 158.929688 76.386719 L 164.804688 76.386719 L 164.804688 82.261719 C 164.804688 83.027344 165.425781 83.648438 166.195312 83.648438 C 166.960938 83.648438 167.582031 83.027344 167.582031 82.261719 L 167.582031 76.386719 L 173.457031 76.386719 C 174.222656 76.386719 174.847656 75.761719 174.847656 74.996094 C 174.847656 74.230469 174.222656 73.609375 173.457031 73.609375 Z M 173.457031 73.609375 " fill-opacity="1" fill-rule="nonzero"/></svg>